<svg xmlns="http://www.w3.org/2000/svg" viewBox="0 0 1200 760" role="img" aria-labelledby="title desc">
  <title id="title">Paoji Core 表情组合预览</title>
  <desc id="desc">使用官方 Core Pack 组件组合的开心、困倦、委屈、惊讶、害羞和生气表情</desc>
  <rect width="1200" height="760" rx="40" fill="#F7F5EF"/>
  <text x="60" y="72" fill="#242128" font-family="Inter, PingFang SC, system-ui, sans-serif" font-size="34" font-weight="800">Paoji Core · 组合预览</text>
  <text x="60" y="105" fill="#756F63" font-family="Inter, system-ui, sans-serif" font-size="18">24 vector components · 4 palettes · 1024 × 1024 canvas</text>
  <g fill="#FFF" stroke="#DED9D0" stroke-width="2">
    <rect x="48" y="140" width="344" height="268" rx="28"/><rect x="428" y="140" width="344" height="268" rx="28"/><rect x="808" y="140" width="344" height="268" rx="28"/>
    <rect x="48" y="440" width="344" height="268" rx="28"/><rect x="428" y="440" width="344" height="268" rx="28"/><rect x="808" y="440" width="344" height="268" rx="28"/>
  </g>
  <g transform="translate(104 152) scale(.225)">
    <circle cx="512" cy="512" r="360" fill="#FFD86B" stroke="#2C2730" stroke-width="28"/>
    <ellipse cx="330" cy="570" rx="74" ry="34" fill="#FF8291" opacity=".72"/><ellipse cx="694" cy="570" rx="74" ry="34" fill="#FF8291" opacity=".72"/>
    <path d="M326 474c18-52 126-52 148 0M550 474c18-52 126-52 148 0" fill="none" stroke="#2C2730" stroke-width="34" stroke-linecap="round"/>
    <path d="M402 600c24 116 196 116 220 0Z" fill="#2C2730" stroke="#2C2730" stroke-width="24" stroke-linejoin="round"/>
    <path d="M447 673c37-28 93-28 130 0-35 38-95 38-130 0Z" fill="#FF7D8A" stroke="none"/>
  </g>
  <g transform="translate(484 152) scale(.225)">
    <rect x="154" y="154" width="716" height="716" rx="230" fill="#C7B4FF" stroke="#302A42" stroke-width="28"/>
    <path d="M326 461c42 30 106 30 148 0M550 461c42 30 106 30 148 0M434 630h156" fill="none" stroke="#302A42" stroke-width="32" stroke-linecap="round"/>
    <path d="M777 318c0 55-38 91-82 91s-82-36-82-91c0-50 82-143 82-143s82 93 82 143Z" fill="#7DDCF5" stroke="#302A42" stroke-width="22"/>
  </g>
  <g transform="translate(864 152) scale(.225)">
    <circle cx="512" cy="512" r="360" fill="#C7B4FF" stroke="#302A42" stroke-width="28"/>
    <ellipse cx="330" cy="570" rx="74" ry="34" fill="#FF82B2" opacity=".72"/><ellipse cx="694" cy="570" rx="74" ry="34" fill="#FF82B2" opacity=".72"/>
    <ellipse cx="400" cy="455" rx="76" ry="92" fill="#302A42"/><ellipse cx="624" cy="455" rx="76" ry="92" fill="#302A42"/><circle cx="373" cy="421" r="24" fill="#fff"/><circle cx="597" cy="421" r="24" fill="#fff"/>
    <path d="M330 370c42-48 92-55 136-22M558 348c44-33 94-26 136 22M430 660c39-61 125-61 164 0" fill="none" stroke="#302A42" stroke-width="28" stroke-linecap="round"/>
    <path d="M727 498c0 68-45 112-95 112s-95-44-95-112c0-61 95-174 95-174s95 113 95 174Z" fill="#7DDCF5" stroke="#302A42" stroke-width="22"/>
  </g>
  <g transform="translate(104 452) scale(.225)">
    <circle cx="512" cy="512" r="360" fill="#91E5C2" stroke="#263630" stroke-width="28"/>
    <circle cx="400" cy="455" r="70" fill="#fff" stroke="#263630" stroke-width="28"/><circle cx="624" cy="455" r="70" fill="#fff" stroke="#263630" stroke-width="28"/><circle cx="400" cy="455" r="25" fill="#263630"/><circle cx="624" cy="455" r="25" fill="#263630"/>
    <ellipse cx="512" cy="638" rx="54" ry="68" fill="#263630"/>
    <g fill="#FFF2A6" stroke="#263630" stroke-width="18"><path d="m741 190 24 72 72 24-72 24-24 72-24-72-72-24 72-24Z"/><path d="m258 664 18 54 54 18-54 18-18 54-18-54-54-18 54-18Z"/></g>
  </g>
  <g transform="translate(484 452) scale(.225)">
    <path d="M278 778c-105 0-190-78-190-174 0-83 63-153 148-170-3-15-5-30-5-46 0-109 96-198 215-198 83 0 155 43 191 106 25-12 54-19 84-19 103 0 186 77 186 172 0 18-3 36-9 52 25 29 39 65 39 104 0 96-85 173-190 173Z" fill="#E7E4DF" stroke="#27252A" stroke-width="28"/>
    <path d="M326 474c18-52 126-52 148 0" fill="none" stroke="#27252A" stroke-width="34" stroke-linecap="round"/><circle cx="624" cy="455" r="45" fill="#27252A"/>
    <g fill="none" stroke="#77727C" stroke-width="20" stroke-linecap="round"><path d="m286 590 32-42m16 44 32-42M658 590l32-42m16 44 32-42"/></g>
    <path d="M422 615c38 65 142 65 180 0" fill="none" stroke="#27252A" stroke-width="32" stroke-linecap="round"/>
    <path d="M791 260c-58-57-155-18-155 62 0-80-97-119-155-62-66 66-2 154 155 254 157-100 221-188 155-254Z" fill="#FF6378" stroke="#27252A" stroke-width="22"/>
  </g>
  <g transform="translate(864 452) scale(.225)">
    <rect x="154" y="154" width="716" height="716" rx="230" fill="#FFD86B" stroke="#2C2730" stroke-width="28"/>
    <circle cx="400" cy="455" r="42" fill="#2C2730"/><circle cx="624" cy="455" r="42" fill="#2C2730"/>
    <path d="m330 330 136 54M558 384l136-54M434 630h156" fill="none" stroke="#2C2730" stroke-width="30" stroke-linecap="round"/>
  </g>
  <g fill="#242128" font-family="Inter, PingFang SC, system-ui, sans-serif" font-size="18" font-weight="700" text-anchor="middle">
    <text x="220" y="388">开心 · Happy</text><text x="600" y="388">困倦 · Sleepy</text><text x="980" y="388">委屈 · Pleading</text>
    <text x="220" y="688">惊讶 · Surprised</text><text x="600" y="688">害羞 · Shy</text><text x="980" y="688">生气 · Angry</text>
  </g>
</svg>
